/* XPM */
static char * akane3_xpm[] = {
"80 128 15 1",
". 	c None",
"+	c #F7B54A",
"@	c #946331",
"#	c #FFE7CE",
"$	c #F7946B",
"%	c #FFBD94",
"&	c #291810",
"*	c #5A0000",
"=	c #AD4A39",
"-	c #F7F7F7",
";	c #FFB5B5",
">	c #B52118",
",	c #DEAD73",
"'	c #FFD6A5",
")	c #B5B5EF",
"................................................................................",
"...............................++++@@.....++++++++..............................",
"...........................++++++++++@.+++++++++++++............................",
".........................+++++++++++++++++++++++++++++..........................",
".......................+++++++++++++++++++++++++++++++++........................",
"......................++++++++++++++++++++++++++++++++++++......................",
"....................+++++++++++++++++++++++++++++++++++++++.....................",
"..................++++++++++++++++++++++++++++++++++++++++++....................",
".................++++++++++++++++++++++++++++++++++++++++++++...................",
"...............+++++++++++++++++++++++++++++@@@@@+++++++++++++..................",
".............+++++++++++++++++++++++++++++@@+++++@@++++++++++++.................",
"...........++++++++++++++++++++++++++++++++++++++++@+++++++++++.................",
"..........#+++++++++++++++++++++++++++++++++++++++++@+++++++++++................",
".........#+++++++++++++++++++++++++++++++++++++++++++@++++++++++................",
"........##++++++++++++++++++++++++++++++++++++++++++++@++++#+++++...............",
".......##+++++++++++++++++++++++++++++++++++++++++++++@++++##++++...............",
"......###++++++++++++++++++++++++++++++++++++++++++++++@++++##++#+..............",
".....###+++++++++++++++++++++++++++++++++++++++++++#++#@++++###+##..............",
".....###+#++++++++++++++++++++++++++++++@++++++++++##+#+@++++##++#..............",
"....###+#+++++++++++++++++++++++++++++++@+++++@++++#####@+#++###+#+.............",
"....##@##++#++#+++++++++++++@+++++++@++++@+++++@+#++####+@##+######.............",
"...##@##++##+##+++++++++++++@+++@+++@++++@+@+#++@+#+#####@+#+######.............",
"...##@##++#++#++++++++@++++@++++@#++@++#++@+@#+#+@+######@+########.............",
"..+#@##++##+##++#+++++@++++@++++@##++@+###@+@+###+@+#+###+@########+............",
"..+#@##+@##+##++#@++++@++#@+#+#+@##+#@#+##+@+@####@+#++##+@+###+##++............",
"..+@+#+@+##+##+#+@#+#@++##@+#+#+@####@####+@+@+###+@##++#+@+###+##++............",
".++@+#+@###+####@+#+#@###+@#+@#@+####@####+@+@++##+@+#++++@+##+++#++............",
".+@@+#@+##+#####@#+##@###@+#+@#@+####@+#+#+@+@++###@+#+@++@@+#+++#++@...........",
".+@+++@+##+####+@#+#+@##+@+#@@#@++###@+#@#+@+@++@##+@#+@@+@@+#++++++@...........",
".+@+++@+#+@####@+#+#@+#++@+#@@+@$++#+@+#@++@@+@++@#+@++@@+@@+#++++++@...........",
".+.++@@+#+@####@##+#@+#+@$++@@+@$++#@@@++@+@@+@++@@#@++@@@@@+#++++++@...........",
".+.++@@+++@+##+@##+#@+++@$+@@@+@$$+#@@@++@@@@+@@++@+@@++@@@@++++@+++@...........",
"...++@.++@@+#++@+#+#@+++@$+@@@+@$$++@@$@+@@@@++@@+@@@@++@@@@++++@++++...........",
"...++@.++@@+#++@+#++@++@@$+@$@+@$$++@@$@++@@@$+@$@+@@@++@@@@++++@++++...........",
"...++@.++@@++++@++++@@+@$%+@$@+@$%#++@$$@++@&&&&&&&@@@@++@@@++++@++++...........",
"...++@.++@@++@+@++@+@@+@$&&&&&$@$%#++@$$$@&&@$$@@$$&&&$@+@@@++++@++++@..........",
"....+@..+@@.+@+@++@+@@+&&%#@$@&&@%##+@@$$%$@@@$$@$$$@@&&+@@@+++@@++++@..........",
"....+@..++@.+@+@++@+@&&@$###$@$%@%###+@%$#%$$@@$$$$$$@$$&&@@+++@@++++@..........",
".....+..++@.++@@@+@+&@$@$#####%#######@#%#%$$$$$$$$$$$$$@@&&+++@@++++@..........",
".....+@..++@.+@@@++@@@$@%#################%$$$$$$$$$$$$$$@@@+++@@++++@..........",
"......@...+@.++@@@+@@$%###################%$$$$$$$$$$$$$$@@++++@@++++@..........",
".......@...+@.+@@@+@@$%#######%###########%$$$$$$$$$$$$$$@@++++@@++++@@.........",
"............+@@+@@@+@@%#######%%##########%$$$$$$$$$$$$$$@@++++@@++++@@.........",
".............@+@+@@+@@#######%%%###########%$$$$$$$$$$$$$@++++@@@++++@@.........",
"..............+@@@@*+%######%%%%%##########%$$$$$$$$$$$$$@++++@@@++++@@.........",
"..............+@@+@*=%####%%%$$$%##########%**===$$$$===$@++++@@@++++@@.........",
"..............+@@+@@*%%$$$$$=&&*%###########=&&&&**==&&&$@+@++@@+++++@@.........",
"..............+@@+@@*$#*&&&&&&*%%##-%########%$*&&&&&&&=*@+@++@@+++++@@.........",
"..............+@@+@@@===$*&&**%%####$%#########%$=***=$$$++@++@@+++++@@.........",
"..............+@@+@@@*#-##%%%#####%*$%####---####%$$$$$$+++@+@@@+++++@@.........",
".............++@@+@@@*$-###########=$######--####%$$$$$$++@++@@+++++@@@.........",
".............++@@+@@@@=--#%$%#################%$$%$$$$$#++@++@@+++++@@@.........",
".............+++@+@@@@*%--########%#############%%$$$$$#++@+@@@+@+++@@@.........",
".............+++@+@@@@@*%--########%$$%#########%$$$$$#++@@+@@++@+++@@@.........",
".............+++@+@@@@@@*$--#######-############%$$$$+#++@@@@@+@+#++@@@.........",
".............+++@++@@@@@+*=#-#######$%#########%$$$$+##++@@@@++@+#++@@@.........",
".............+++@++@@@@@++@*=%###############%$$$$=+###+@@@@#+@+#+++@@@.........",
".............+#+@#+@@@@@@+@@+*=$%###########%$$$=++###++@@@##@@##+++@@@.........",
".............+#++#+@@+@@@+@+++@*=$%#######%%$==++##+@++@@@##@@##++#@@@@.........",
"..............#++#+#@@++@@@+++@@@**=$%%%$$=**@++++@@++@@@###@###++#@@@..........",
"..............##+###@@@++@@@+++@@@@***==**==@+++@@@@+@@####@###++##@@@..........",
"..............+#####@@@++++@@++@@@@@*;=====@++@@@@@+@@++##@++#####++@@..........",
"...............######@@@++++@@+@@@@@$$$==$@++@@@@@@@+++##@++#####++@@@..........",
"...............+#+####@@@++@@@@@@@@@$%$$%@++@@@@@@+++##@@+++#####@+@@...........",
"................#+#####@@@@+@@@@@@@@$####@+@@@@++++++@@++++##+++@+@@@...........",
"................+++##+##+@@@+@@@@@@$;$###@+@@++++@+@@+++++++++@@@@@@............",
".................+++##+++++@@@@@@@@;;$##%@+@+++@@@@@+++++++++@@@@@@.............",
"..................+++##++@@+@@@@@@@;;$##%$@+++@@@@+++++++++@@@@@@@..............",
"...................+++@+++@@++@@@@@;;$#%$@++@@@@+++@++++@@@@@@@@................",
"....................+++@++++@++@@@@>>>%>>@+@@@+++@@+++@@@@@@@@..................",
".....................+++@@+++@++@@@@;;;;;@@@@++@@++@@@@@@@......................",
".......................++@@@+@@+@@+@>*>*>@@+++@@@@@@@@@.........................",
".........................+@@@@@@+@+@**>*>@@+@@@@@@@@@...........................",
"...........................@@@@@@@++>*>*@@+@@@++@@@@@...........................",
"...........................@@@@@@@++@**@@@@+##++@,,@@...........................",
"...........................@,,++@@@+@**@+@+#++++@,,@@...........................",
"...........................,,,@+++@+@,*+@++@@@+@,,,@............................",
"...........................,',@++++@@,@+@+@++++@,,@@............................",
"...........................,',,@+@+@@,@+@@+++@@,,,@@............................",
"...........................,'',@++@+@,@@@++@@,,,,@@@............................",
"...........................,'',,@++@@@+@@@@,,,',,@,@............................",
"...........................,',,,,@@@@@++@@@,'',,@@@@............................",
"...........................,,'',,,@@@@+@,,,'',,,@,@.............................",
"...........................,,''',,,@@@,''''',,,@@,@.............................",
"...........................,,'''',,@@@'''''',@,@,,@.............................",
"............................,'''',,,,'''''',@,@@,,@.............................",
"............................,'''',,,'''''',,@@@@,,@.............................",
"...........................@,'''',,,'''',,,@@@++@@@.............................",
"........................@@++,,'',,,',,,,,,@@@+@+@++.............................",
".......................@@#@@+,,,,@,'@,@,,@@@@++@+#@@............................",
"......................@+@#+@>,,@,@@@@@@,@@@**@@+#@+@............................",
"......................@++++>>*,@@@##%%@@@@>>>*@++++@............................",
"......................@++@@>*$@,@#####%@@%%%>>@@@+@@@...........................",
"....................+##@+@>*$%#@%####%%$%##%%>>@++@++@..........................",
"...................+#+@+@>>*%###%$%$%$$%####%%>@@@@@#+*.........................",
"...................+#@++@***%###$$%$%$%%####%$*>>@+@+#+**.......................",
"...................++@+@@..*%####$$$$%%####%%$*>*@++@#+.........................",
"...................++++@...*)-####%%%%#####-)))***@++#+.........................",
"....................++@@....)------))-------)))*..@@+++.........................",
"....................++@......)------))-------)))...@++@.........................",
".....................+@......)------))-------)))....@+@.........................",
"......................@......))------))-------)))...@@..........................",
"......................@.......))-----))-------)))....@..........................",
"...............................)------))-------))...............................",
"................................)------))------)))..............................",
".................................)-----)))------))..............................",
"..................................)-----)))------)).............................",
"...................................)-----))------)).............................",
"....................................)-----))------).............................",
"....................................))----)))-----))&&..........................",
".....................................))----)))----))&&&.........................",
"......................................)----)))----)))*&&........................",
"......................................))--)))))--))))**&........................",
"......................................*)----)*)----))**&........................",
"......................................*)----)*)----))**&........................",
"......................................**)---)**----))**&........................",
"......................................*===**&*===******&&.......................",
".......................................*===**&*===****&*&.......................",
".......................................*))))))*)))))))**&.......................",
".......................................*)----)*)----))**&.......................",
".......................................*)---))*)----))**&.......................",
".......................................**)))))**)))))***&.......................",
".......................................*******&*********&.......................",
"........................................*====*&*=====**&&.......................",
"........................................*===**&*====***&&.......................",
"........................................*****&&*******&&........................",
".........................................&&&&&&&&&&&&&&.........................",
"................................................................................"};
