/* XPM */
static char * akane0_xpm[] = {
"80 128 17 1",
". 	c None",
"+	c #F7B54A",
"@	c #946331",
"#	c #FFE7CE",
"$	c #F7946B",
"%	c #291810",
"&	c #FFBD94",
"*	c #AD4A39",
"=	c #5A0000",
"-	c #002929",
";	c #105A63",
">	c #B5B5EF",
",	c #F7F7F7",
"'	c #FFB5B5",
")	c #B52118",
"!	c #DEAD73",
"~	c #FFD6A5",
"................................................................................",
"...............................++++@@.....++++++++..............................",
"...........................++++++++++@.+++++++++++++............................",
".........................+++++++++++++++++++++++++++++..........................",
".......................+++++++++++++++++++++++++++++++++........................",
"......................++++++++++++++++++++++++++++++++++++......................",
"....................+++++++++++++++++++++++++++++++++++++++.....................",
"..................++++++++++++++++++++++++++++++++++++++++++....................",
".................++++++++++++++++++++++++++++++++++++++++++++...................",
"...............+++++++++++++++++++++++++++++@@@@@+++++++++++++..................",
".............+++++++++++++++++++++++++++++@@+++++@@++++++++++++.................",
"...........++++++++++++++++++++++++++++++++++++++++@+++++++++++.................",
"..........#+++++++++++++++++++++++++++++++++++++++++@+++++++++++................",
".........#+++++++++++++++++++++++++++++++++++++++++++@++++++++++................",
"........##++++++++++++++++++++++++++++++++++++++++++++@++++#+++++...............",
".......##+++++++++++++++++++++++++++++++++++++++++++++@++++##++++...............",
"......###++++++++++++++++++++++++++++++++++++++++++++++@++++##++#+..............",
".....###+++++++++++++++++++++++++++++++++++++++++++#++#@++++###+##..............",
".....###+#++++++++++++++++++++++++++++++@++++++++++##+#+@++++##++#..............",
"....###+#+++++++++++++++++++++++++++++++@+++++@++++#####@+#++###+#+.............",
"....##@##++#++#+++++++++++++@+++++++@++++@+++++@+#++####+@##+######.............",
"...##@##++##+##+++++++++++++@+++@+++@++++@+@+#++@+#+#####@+#+######.............",
"...##@##++#++#++++++++@++++@++++@#++@++#++@+@#+#+@+######@+########.............",
"..+#@##++##+##++#+++++@++++@++++@##++@+###@+@+###+@+#+###+@########+............",
"..+#@##+@##+##++#@++++@++#@+#+#+@##+#@#+##+@+@####@+#++##+@+###+##++............",
"..+@+#+@+##+##+#+@#+#@++##@+#+#+@####@####+@+@+###+@##++#+@+###+##++............",
".++@+#+@###+####@+#+#@###+@#+@#@+####@####+@+@++##+@+#++++@+##+++#++............",
".+@@+#@+##+#####@#+##@###@+#+@#@+####@+#+#+@+@++###@+#+@++@@+#+++#++@...........",
".+@+++@+##+####+@#+#+@##+@+#@@#@++###@+#@#+@+@++@##+@#+@@+@@+#++++++@...........",
".+@+++@+#+@####@+#+#@+#++@+#@@+@$++#+@+#@++@@+@++@#+@++@@+@@+#++++++@...........",
".+.++@@+#+@####@##+#@+#+@$++@@+@$++#@@@++@+@@+@++@@#@++@@@@@+#++++++@...........",
".+.++@@+++@+##+@##+#@+++@$+@@@+@$$+#@@@++@@@%%%%%%%+@@++@@@@++++@+++@...........",
"...++@.++@@+#++@+#+#@+++@%%%%%+@$$++@@$@+@%%@++@@+@%%%++@@@@++++@++++...........",
"...++@.++@@+#++@+#++@++%%$+@$@%%$$++@@$@++@@@$+@$@+@@@%%@@@@++++@++++...........",
"...++@.++@@++++@++++@%%@$&+@$@+@$&#++@$$@++@@$+@$$@@@@@+%%@@++++@++++...........",
"...++@.++@@++@+@++@+%@+@$#&@$@$@$&#++@$$$@++@$$@@**@@@$@+@%%++++@++++@..........",
"....+@..+@@.+@+@++@+@@+@$**@*@$&@&##+@@$$&$@@@*=%%%*@@$@+@@@+++@@++++@..........",
"....+@..++@.+@+@++@+@@$@*=%%=@$&@&###+@&$#&$*=%%%%%%%=*$@@@@+++@@++++@..........",
".....+..++@.++@@@+@+@@*@%%%%%%*&######@#&#&$%%%---;>%%%=@@@@+++@@++++@..........",
".....+@..++@.+@@@++@@@=%%%-;>-%&##########&%=>---;,,,-%%%%@@+++@@++++@..........",
"......@...+@.++@@@+@@%%%--->,,-%&##########$>>---;,,,,-%=@@++++@@++++@..........",
".......@...+@.+@@@+@@*=>--->,,;-&###########>>---;>,,,-*$@@++++@@++++@@.........",
"............+@@+@@@+@@#>-;-->,,-&###########,,----;>,;;$$@@++++@@++++@@.........",
".............@+@+@@+@@#>-;--->>-&###########,,-;---;;;;$$@++++@@@++++@@.........",
"..............+@@@@=+##,-;----;-&###########,,-;-----;;>$@++++@@@++++@@.........",
"..............+@@+@=*##,,;;--;;-############,,-;;---;;->$@++++@@@++++@@.........",
"..............+@@+@@=&##,-,;;>;=############,,>;>;--;;->$@+@++@@+++++@@.........",
"..............+@@+@@=$,#,,->>;%$###,&########,>-;,;;>;-=$@+@++@@+++++@@.........",
"..............+@@+@@@*,#*>>-;%=#####$&#######,,>-;>>;-%%=++@++@@+++++@@.........",
"..............+@@+@@@=#,&*=%%*&###&=$&######&*==%%--%%=*+++@+@@@+++++@@.........",
".............++@@+@@@=$,##&&&######*$#####,,,##&*=%%=*$$++@++@@+++++@@@.........",
".............++@@+@@@@*,,##################,,####&$$$$$#++@++@@+++++@@@.........",
".............+++@+@@@@=&,,&$&#####&###########&$$&$$$$$#++@+@@@+@+++@@@.........",
".............+++@+@@@@@=&,,########&$$&#########&$$$$$#++@@+@@++@+++@@@.........",
".............+++@+@@@@@@=$,,#######,############&$$$$+#++@@@@@+@+#++@@@.........",
".............+++@++@@@@@+=*#,#######$&#########&$$$$+##++@@@@++@+#++@@@.........",
".............+++@++@@@@@++@=*&###############&$$$$*+###+@@@@#+@+#+++@@@.........",
".............+#+@#+@@@@@@+@@+=*$&###########&$$$*++###++@@@##@@##+++@@@.........",
".............+#++#+@@+@@@+@+++@=*$&#######&&$**++##+@++@@@##@@##++#@@@@.........",
"..............#++#+#@@++@@@+++@@@==*$&&&$$*==@++++@@++@@@###@###++#@@@..........",
"..............##+###@@@++@@@+++@@@@===**==**@+++@@@@+@@####@###++##@@@..........",
"..............+#####@@@++++@@++@@@@@='*****@++@@@@@+@@++##@++#####++@@..........",
"...............######@@@++++@@+@@@@@$$$**$@++@@@@@@@+++##@++#####++@@@..........",
"...............+#+####@@@++@@@@@@@@@$&$$&@++@@@@@@+++##@@+++#####@+@@...........",
"................#+#####@@@@+@@@@@@@@$####@+@@@@++++++@@++++##+++@+@@@...........",
"................+++##+##+@@@+@@@@@@$'$###@+@@++++@+@@+++++++++@@@@@@............",
".................+++##+++++@@@@@@@@''$##&@+@+++@@@@@+++++++++@@@@@@.............",
"..................+++##++@@+@@@@@@@''$##&$@+++@@@@+++++++++@@@@@@@..............",
"...................+++@+++@@++@@@@@''$#&$@++@@@@+++@++++@@@@@@@@................",
"....................+++@++++@++@@@@)))&))@+@@@+++@@+++@@@@@@@@..................",
".....................+++@@+++@++@@@@'''''@@@@++@@++@@@@@@@......................",
".......................++@@@+@@+@@+@)=)=)@@+++@@@@@@@@@.........................",
".........................+@@@@@@+@+@==)=)@@+@@@@@@@@@...........................",
"...........................@@@@@@@++)=)=@@+@@@++@@@@@...........................",
"...........................@@@@@@@++@==@@@@+##++@!!@@...........................",
"...........................@!!++@@@+@==@+@+#++++@!!@@...........................",
"...........................!!!@+++@+@!=+@++@@@+@!!!@............................",
"...........................!~!@++++@@!@+@+@++++@!!@@............................",
"...........................!~!!@+@+@@!@+@@+++@@!!!@@............................",
"...........................!~~!@++@+@!@@@++@@!!!!@@@............................",
"...........................!~~!!@++@@@+@@@@!!!~!!@!@............................",
"...........................!~!!!!@@@@@++@@@!~~!!@@@@............................",
"...........................!!~~!!!@@@@+@!!!~~!!!@!@.............................",
"...........................!!~~~!!!@@@!~~~~~!!!@@!@.............................",
"...........................!!~~~~!!@@@~~~~~~!@!@!!@.............................",
"............................!~~~~!!!!~~~~~~!@!@@!!@.............................",
"............................!~~~~!!!~~~~~~!!@@@@!!@.............................",
"...........................@!~~~~!!!~~~~!!!@@@++@@@.............................",
"........................@@++!!~~!!!~!!!!!!@@@+@+@++.............................",
".......................@@#@@+!!!!@!~@!@!!@@@@++@+#@@............................",
"......................@+@#+@)!!@!@@@@@@!@@@==@@+#@+@............................",
"......................@++++))=!@@@##&&@@@@)))=@++++@............................",
"......................@++@@)=$@!@#####&@@&&&))@@@+@@@...........................",
"....................+##@+@)=$&#@&####&&$&##&&))@++@++@..........................",
"...................+#+@+@))=&###&$&$&$$&####&&)@@@@@#+=.........................",
"...................+#@++@===&###$$&$&$&&####&$=))@+@+#+==.......................",
"...................++@+@@..=&####$$$$&&####&&$=)=@++@#+.........................",
"...................++++@...=>,####&&&&#####,>>>===@++#+.........................",
"....................++@@....>,,,,,,>>,,,,,,,>>>=..@@+++.........................",
"....................++@......>,,,,,,>>,,,,,,,>>>...@++@.........................",
".....................+@......>,,,,,,>>,,,,,,,>>>....@+@.........................",
"......................@......>>,,,,,,>>,,,,,,,>>>...@@..........................",
"......................@.......>>,,,,,>>,,,,,,,>>>....@..........................",
"...............................>,,,,,,>>,,,,,,,>>...............................",
"................................>,,,,,,>>,,,,,,>>>..............................",
".................................>,,,,,>>>,,,,,,>>..............................",
"..................................>,,,,,>>>,,,,,,>>.............................",
"...................................>,,,,,>>,,,,,,>>.............................",
"....................................>,,,,,>>,,,,,,>.............................",
"....................................>>,,,,>>>,,,,,>>%%..........................",
".....................................>>,,,,>>>,,,,>>%%%.........................",
"......................................>,,,,>>>,,,,>>>=%%........................",
"......................................>>,,>>>>>,,>>>>==%........................",
"......................................=>,,,,>=>,,,,>>==%........................",
"......................................=>,,,,>=>,,,,>>==%........................",
"......................................==>,,,>==,,,,>>==%........................",
"......................................=***==%=***======%%.......................",
".......................................=***==%=***====%=%.......................",
".......................................=>>>>>>=>>>>>>>==%.......................",
".......................................=>,,,,>=>,,,,>>==%.......................",
".......................................=>,,,>>=>,,,,>>==%.......................",
".......................................==>>>>>==>>>>>===%.......................",
".......................................=======%=========%.......................",
"........................................=****=%=*****==%%.......................",
"........................................=***==%=****===%%.......................",
"........................................=====%%=======%%........................",
".........................................%%%%%%%%%%%%%%.........................",
"................................................................................"};
