/* XPM */
static char * misaki0_xpm[] = {
"80 128 17 1",
". 	c None",
"+	c #4A425A",
"@	c #292142",
"#	c #8C8C9C",
"$	c #080818",
"%	c #AD4A39",
"&	c #F7946B",
"*	c #FFBD94",
"=	c #FFE7CE",
"-	c #B5B5EF",
";	c #F7F7F7",
">	c #5A0000",
",	c #FFB5B5",
"'	c #B52118",
")	c #946331",
"!	c #DEAD73",
"~	c #FFD6A5",
"................................................................................",
".....................................+++@@@..+++++++............................",
"..................................++++++@@@@+++++++@@@++........................",
"................................++++++++@@++++++++++++@@@+......................",
"...............................++++++++@++++++++++++++++@@@+....................",
".............................+++++++++++++++++++++++++++++@@@...................",
"..........................+++++++++++++++++++++++++++++++++@@@..................",
"................+####+++@@++++++++++++++++++++++++++++++++++@@@.................",
"............+#####+++++++@++++++++++++++++++++++++++++++++++@@@@................",
"..........+#####++@@@@@++@@@@++++++++++++++++++++++++++++++++@@@@...............",
"........+##+++++++++++++++@++@++@+++++++@+++++++++++++++++++++@@@@..............",
".......#+++@@@+####+++++@@+++@+@+@+++++@+@@++++++++++++++++++++@@@+.............",
".....+++@...######+@@+++++++++@+++@++++@++@@@++++++++++++++@+++@@@@.............",
"...++@@..+##++###++++++@@++++@+#++@+++@+++@+@@++++++++++++++@@++@@@+............",
"..+@@..+#+++@@$@+##+++@++++++@#++@@@++@+@++++@++@@+++++++++++@@+@@@+............",
".+@...++++@$$@####++@@##++++++#++@$@+@@@@+#++@+#++@@@@++++++++@@@@@@+...........",
".....+++@$$$+######++##++++++##+@$$@@@@$@@#++@+#+++@++@@++++++@@@@@@+...........",
"....++@@@..+##++##+####++++++##+@$$$@@$$$@##+@+##++@+++@++@@+++@@@@@+...........",
"....+@@...+#+++#++####+#++#++##@@$$$@$$$$@##+++###+@+#++#+++@+++@@@@@+..........",
"...+@@...+++++++++######++#+##+@$$$@$$$$$@##++####+++#++#++++@+++@@@@+..........",
"..+@....++@++@++@#######++#+##+@$$$@$$$@$@##++#####++##+##+++@++++@@@+..........",
"..@....++@++@++@@#+#####+##+##+@$@$@$$$@$@##++#####++#####+++@@++++++++.........",
".@.....+@@+@++@@#++##+#++##+##@@$@$@$@$@$@##++##+##++######+#+@+++#++#+.........",
"......++@+@++@$@#@##++#++##+##@@$$@@$@@$$+##++##+##++######+#+@+++##+#+.........",
"......+@@@$+@$@@+@#+++#+@#++#+@@$%&#&+#&$+#+++#+@##+##+####+#+@+#+####+.........",
".....+@@+$.+$+@++@#+@+++@#++#+@@%**=====&##++@#+@#++##@#+##+##@@#+####+.........",
".....+@+@.+@$+@++@#+@++@@#+@#@@$%*======*##++@#@@#+@#+@#+##@+#+@#######+........",
"....+@.+$.+@++@++@#@@++@@#+@+@@$&*=======#++@+#@+++@#+@++#+@+#+@####+##+........",
"....+@@@..@@+@@+@@#@@+@@@++@+@$$&========#++@++@++@@++$++#+$@#+@+###+##+........",
"....@.@..+@.+@++@$+@@+@@$+@@+@$%*========+++@++%++@++@$+@#+$$++$+###++#+........",
"...+@.@..@..+@++@$+@$+@@$+$$$@$&*=======*++@$$$$$@@++@@+@++$$++$+#+#@+++........",
"...+@...@@..+@+@@$+@$++@$$$@$$$&========&+$$$@@%@$$++$++@+@$$@+$+++#@@++........",
"...@....@..+@.+@$$+@$@+@$@@@+@$&========++@@+@%++@@$$$+@@+@$@@+$++@+@$++........",
"...@.......+@.+@$$++$@+$$%+@%+@&========+@@%@&&+@%&+$$$@++$$@@+$@+$$$$+++.......",
"...........+@.++$.@+@$+$@&+@&+@%*======*+@%@&%+@%%+@$&$$+@$$@@+$@$$@$$@++.......",
"...........@..++$.@+@$$+@$%@@%+@*======&+@&&%$$$$$+$%+@+$$@$@@@$@$$@$$@++.......",
"...........@...+$.@+@$$+@$$$$@%+&======+@&&@$$$$$$$$%@%+$@@$+@@$$$@@$@$++.......",
"...............+@..@+$%&@$$$$$@*&=====*+&&@$@-@@$$$$$%&$@@$@+@@$$$@+$@@++.......",
"...............+@..$@$*%$$@$@@$*=*====+=&**--+@@$$$@$$%&@+$@+@@$$$@+$@@@+.......",
"................@..+$$&@$@$$$@$&=======&*==--@@$$$$$@$@%@+@@+@@$@$@+$@@@+.......",
"................@..+@$%$$@$$$$@%=======*===-;@@$$$$$@$$$@+@++@$$@$@+$@@@+.......",
"...................+@@@$-@$$$$@+===========;;@@$$$$$@$@$$$@++@$@@@++$@+@+.......",
"...................+@$$@-@@$$$@@===========;;$@$$$$$@@#@$+@++@$*@@++$@+@++......",
"...................+@>$--@@$$$+$===========;;$+$$$$$@@&&++@++@$&@@++$@+@@+......",
"...................+@>&--@+@$@+$============;$+@$$$@+@&+++@++@$&@@++@@+@@+......",
"...................+@$%=;;@+++#@=;==========;$@+@@@@+$&+++@#+@$%@@++@@+@@+......",
"...................+@$>=;;$@##@$=;*=========;#$+#++#+$&+#+@#+@$>@@@+@@+@@+......",
"..................++@$>&=;;$@@$*;*&=========#-$@+##+$#&+#@@#@@$$@@@++@+@@+......",
"..................++@$@%;#-#$>&=%&*=======;=*+@$@++@$$&+#@+#@@$$$@@++@++@++.....",
"..................+#@$@%;=++&*==*>*======;;;==*%>$$$%&+##@#+@$@$$@@++@++@++.....",
"..................+#@$@>=;===============;;=====*&&&&&+##+#@@$@$$@@++@++@++.....",
"..................+#@$@>%;;*&*===============*&&*&&&&&+#++#@$$@$$@@++@++@@+.....",
"..................+#+@@@>%=;=====*%==*&*=======*&&&&&&##+#+@$$@$$@@++@@++@+.....",
"..................+#+@@@$>%*;;====*&%%*========*&&&&&+##+#+@$$@@$@@++@@++@+.....",
"..................+#+@@@$@@%*=;====;==========*&&&&&%+#+#+@@$$@@$@@@+@@++@++....",
"..................+##@@@$@#@>%*=====&*======*&&&&&%>+#+++@@$$$$@$$@@+@@++@++....",
"..................+##@@@$$#@@@>%**=========*&&&&%>$$#+@++@$$$@$@$$@@+@@++@++....",
"...................+#@@@$$++@+@$>%&*=====**&&%>>$$$+#@+++@$$$@$@$$@@+@@++@++....",
"...................+#+@$$$$#@+@$$$>%&***&&%>>$$$$$$#+@++@$$$$@$@$$@@+@@++@++....",
"...................+#+@$$$$++@+@$$$$>>%%>>%&%$$$$$++@++@@$$$$@$@$$@@+@@@+@+++...",
"...................+#+@$@$$@+@+@$$$&,,%%%%&&%,,&%>++@++@$$$$$@$@$$@@+@@@+@@++...",
"...................+++@$@$$$++@+@%,,,,%&&&*&,,,,&++@++@$$$$$$@$@$$@@+@@@+@@++...",
"...................+++@$@$@$@+@+@,,,,&%**=*&,,,,'+@++@$$$@$$$@$@$$@@@@@@+@@++...",
"...................+++@$@$@$$++@+,;,,%*==*&;;,,'+@@+@$$$$@$$$@$@@$@@@@@@++@++...",
"...................+++@$@$@$$@++@@;;,%===&;;,,'+@)+@$>$$$@$$$@$@@$@@@@@@++@++...",
"...................+++@$@$@$$$)++@,;,%==&;;,,'+)!@@))>$$$@@$$@@@@$@@@@@@++@@+...",
"...................+++@$@$@$$)!!)+'',&=&;,,''@)!@!~~!)$$$@@$$@@@@$@@@@@@@+@@+...",
"...................+++@@@$@$$!~!)),,'*''''',,)!~!~~~!)$$$@@$$@@@@$@@@@@@@+@@+...",
"....................++@@@$@$)!~''''>'>>,,,,))!~~~~~!!)$$$@@$$@@@@$@@@@@@@+@@+...",
"....................++@@@$$$!!~'>>>''>'''))!~!~~~~~!!)$$$$@$$@@@@$@@@@@@@+@@+...",
"....................+++@@@$$!~~'''>'>>>>''!~!~~~~~~!!>$$$$@$$@@@@$@@@@@@@+@@++..",
"....................+++@@@$)!~~''>>>>>''>'~~!~~~~~!!)$$$$$@$@@@@@$@@@@@@@+@@@+..",
"....................+@+@@@$!!~~!>>>)>>>''!~!~~~~~~!!)$$$$$@$@@@@@$@@@@@@@+@.@+..",
"....................+@+@@@$!~~!!'>>)!'>>'~~!~~~~~~!!>$$$$$@$@@@@@$@@@@@@@+@.@+..",
"....................+.+@$@@!~~!'>'))!'>>)~~!~~~~~!!)$$$$@$@$@$@@@$@@@@@@@+@.@+..",
"....................+.++$@)!~~'>''!)!'>>)~!!~~~~!!!)$$$$@$@$@$@@@$@@@@$@@+@.@+..",
"....................+.@+$@!!~!''')),!''>>~!!!~~!!!!>$$$$@$$$@$@@@$@@@@$@@+@.@+..",
"....................+.@+$@!~!)>'>!),!!'>>!~~~~~!!!)$$$$$@$$$@$@@$$@@@@$@@+@.@@..",
"....................++.+$@!~~~!>)!),&!'>!~~~~~!!!!)>$$$@$$$$@$@@$$$@@@$@@+@..@..",
"....................++.+$@!~~~!!)!),,!>!~~~~~!!!!!))$$$@$$$@@$@@$$$@@@$@@+@..@..",
".....................+.@@$!~~~!!))),,!!~~~~~!!!!!)!)$$$@$$$@@$@$$$$@@@$@@+@..@..",
".....................+.@@$)!~~~!!))>>!~!!!~!!!!!!)!)$$$@$$$@$$@$$$$@@@$@@+@..@..",
".....................+..@$)!!!!!!))>>)!!!!!!!!!!)!!)>$$@$$$@$@@$$.$@@@$@@@@.....",
"........................@$)!!)!)!))>>))!!!!!!!!))!)!)$$.$$$@$@@$..$@@@$.........",
"...........................)!!))))@>>)!)!!!!!!)))))))$$.$$.$$$$$................",
"...........................)))===*>=*)))!)!!))))>>$>>...........................",
"............................)==**&==**&))!)))>>>>>>$>>>.........................",
"..........................''>**&&==**&&))))''''>>>>$>$..........................",
"........................'''>>>&&&*&&>'''''''''''>>>>$>..........................",
".......................'''''>>>>>>''''''''''''''>>>>>$>.........................",
"......................''''''>>>''''''''''''''''''>>>>$>>........................",
"......................''*=**>>'****&>>''''''''''''>>>>$.........................",
".....................''*====*>**====*>'''''''''''>>>>>>$........................",
".....................>*=====*&*======**&>''''>'''''>>>>>>.......................",
"...................>>>*=====*&*=======**&>''>>>''''''>>>>>>>....................",
"......................*=====*&*======**&&>>'>...................................",
"......................*=====*&*======*&&...>>...................................",
"......................-;=====--======;---..>....................................",
"......................-;;;;;;--;;;;;;;---.......................................",
".......................;;;;;;;--;;;;;;;---......................................",
".......................-;;;;;;--;;;;;;;---......................................",
".......................-;;;;;;;-;;;;;;;---......................................",
"........................-;;;;;;--;;;;;;;---.....................................",
".........................-;;;;;--;;;;;;;---.....................................",
".........................-;;;;;;--;;;;;;;--.....................................",
"..........................-;;;;;--;;;;;;;--.....................................",
"..........................-;;;;;;--;;;;;;--.....................................",
"...........................-;;;;;--;;;;;;---....................................",
"............................-;;;;;--;;;;;;--....................................",
"............................--;;;;---;;;;;---$$.................................",
".............................-;;;;;--;;;;;---$$$................................",
".............................--;;;;-#-;;;;--#>>$$...............................",
"..............................--;;;-##-;;---#>>>$...............................",
"..............................-;;;--#>-;;;;->>>>$...............................",
"..............................--;;--#>-;;;;->>>>$...............................",
"..............................>-;;--#>-;;;-->>>$$...............................",
"..............................>%%%>>$>%%%>>>>>>$$...............................",
"..............................>%%%>>$>%%%>>>>>>$................................",
"..............................>#---##>#----##$>$................................",
"..............................>#;;;;->#;;;;-->>$................................",
"..............................>#;;;-#>#;;;;-->>$................................",
"..............................>>---##>>----->>>$................................",
"..............................>>>>>>>$>>>>>>>>>$................................",
"...............................>%%%%>$>%%%%%>>$$................................",
"...............................>%%%>>$>%%%%>>>$$................................",
"...............................>>>>>$$>>>>>>>$$.................................",
"................................$$$$$$$$$$$$$$..................................",
"................................................................................"};
