/* XPM */
static char * nanase0_xpm[] = {
"88 128 17 1",
". 	c None",
"+	c #1829BD",
"@	c #6B84DE",
"#	c #08107B",
"$	c #B52118",
"%	c #5A0000",
"&	c #F7946B",
"*	c #AD4A39",
"=	c #101018",
"-	c #FFBD94",
";	c #085A21",
">	c #FFE7CE",
",	c #B5B5EF",
"'	c #F7F7F7",
")	c #42945A",
"!	c #FFEF8C",
"~	c #FFDE63",
"........................................................................................",
"........................................................................................",
"......................................+++++.............................................",
"...................................++++++++++.+++++.....................................",
".................................++++++++++++++++++++++.................................",
"...............................++++++++++++++++++++++++++...............................",
".............................+++++++++++++++++++++++++++++..............................",
"..........................++++++++++++++++++++++++++++++++++............................",
".................@@@+++++++++++++++++++++++++++++++++++++++++...........................",
"..............@@@+++++++++++++++++++++++++++++++++++++++++++++..........................",
"............@@@@@@@+#####++++++++++++++++++++++++++++++++++++++.........................",
"..........@@@@@@+###++++++++++++++++++++++++++++++++++++++++++++........................",
".........@@@@@+##+++++++++#++++++++++++++++++####++++++++++++++++.......................",
"........@@+@++@@@+++++++##+++++++++++++++++##++++###++++++++++++@.......................",
".......@@+@+@@@+@@@@++##++++++++++++++++++++++++++++#++++@+++++@@@......................",
"......+++++@@@@@@@@+###++++++++++++++++++++++++++++++#++++@++@+@@@......................",
".....++++#@@@@@@@@+##++@++++++++++++++++++++++++++++++#+++@@++@@@@@.....................",
".....++##@@+@@++@+##+@@++++++++++++++++++#+++++++++++++#+@+@@++@@@+.....................",
"....++##@+++@++@@#+@@@@++++++++++++++++++#+++++++++++@++#+@@@@+@@@+.....................",
"....+#.@+++@++@++@@@@@+++++@++#+++++++++++#++#+++#++++@@+#+@@@@@@@@+....................",
"...+#.+++++++@+@@@+@@@++@+@@+#+++++++++#+@#++#+++@#++#+@@+#@@@@@@@@+....................",
"...#..+++++++#@@@+@@@@+@++@+#++++++++@+#+@#+@+#++@+#@+#+@@#+@@@@@+@+.....$$.............",
"..#..+++++++#+@@+@@@@@@+#@@+#++++++++@+#@@#+@+#+++@#+@#++@@#+@@@@++@+...$$$.............",
".....++++++#+@@++@@@@+@+#@@#@++@+#+++@@#@@##@@#+@+@#+@+#++@#++@+@++++...$$$$............",
"....++++++##+@@+@@+@@@+#+@+#@#+@@#@++@@#@@+#@@+#@@@+#@@#++@+#++++@#++..$$$$$............",
"....+++++##++@++@++@+@+#@@#@+#+@@+@++@@#@@@#@@@#@@@@#+@+#++@#++++@#++..$$$$$$...........",
"...+++#+##+++++@+++@+@+#@@#@+#@@++@@+@@#+@@#@@@#+@@@#+@@#++@#++#+++#+..$$$$$$$%.........",
"...+++#+#++++#+++++++++#@+#@+#@@+@@@@@@#+@+#@@@##+@+##+@#++++#+##++#+#$$$$%%$$$%........",
"...++#+##+++#++++++#++#+@#++##@++@+@@@+#+@+#@+@##+@+##+@##+++#++#++#+#$$$%$$$$$%%.......",
"...++#+#++++#++++++#++#++#++#&@+#@+@@++#+@+#@+@#*+@+##++##+++#++##+###$$%$$$$$$%%%......",
"...++###+++##+++++#+++#+##+##&@+#+++@+##++##@=====+##*++##+++#++##+###%$%$$$$%%%%%......",
"...++###+++##+++++#+++#+#&===&++#++#@+#&++===+##&#===&++###++##+#####$%%%%$%%%%%==......",
"...++##+++###+++++#+#+#+==+#*==+#&+#@##&++#+++#*&&+##==+###++###+###$$$%%%%%%===........",
"...+###+++###++++##+#+==#&#&&-++#&+#+#&&+##++##&&&+#&&+==##+########$$$$$%===%%.........",
"...+###++####++++##+#=##&&#&---+#&++##&++#&+##****##&&&+#=#+#####$$%%$$$%=%%=%%.........",
"....##.++####++++#++#+##*%=%*--+#&-+##&+#&&+#*%===%**&&####+###$$$$%=%$%%=%$%=%%%.......",
"....##.++####+++##++##+#%====*-+#&-+##&+#&+#%=======%**#&##+#$$$$$%$$=%%==#%$%%%%%......",
"....##.++####+++##++##+#====;=&>+-&-+#&+#&#%======;;==%#&####$$$$%$$$%==####$$$%%%......",
"....#..+#####+++##++##+%=,=;''=>-#&>+#&#&&%=,====;'';==%*###$$$$$%$$$%=%##+#$$$%=%%.....",
"....#..+##.##+++##++##===,=;'''->#->-#&#&--,,=;==;''';===##$$$$$$$%$$%=%##+##$$$=%%.....",
"....#..+##.###++##++##*=,,;=)')->>>>>#->&->,';;==;''';*&####$%%$$$$$$%=$##++#$$$%=%.....",
".......+##.###++##++##&*,';==);->>>>>>->>>>'';;===)'';,&&##+##%%$$$$%%=$$##+#%$$$=%.....",
".......++#.###++##%+##&-,';===;;>>>>>>>>>>>'';;====;);,&&&#+####$$%%%%=$$##+##$$%.......",
"........+#..##+++#%++##-'';;==;;>>>>>>>>>>>'';;=====;;&&&&#+#&###%%%%=%$$##+##%%%.......",
"........+#..##%++#%%++#&'';);));>>>>>>>>>>>>';);===;);&&&&#+#*####%%%=%$$$#+#+##........",
"........+#...#$++##%%+##>',;');;>>>>>>>>>>>>';));;;;);&&&*#+#*#####==%%%$$#+++##........",
".........#...#$%++#%%#+#>''=;;=->>'->>>>>>>>',;'))));,&&*&#++#####%%%%%%$$#+++##........",
".........#..$$#%$+#%%##+#*',==->>'--->>>>>>-*=;;)));,,*&**#++####.$$%%%%$$$+++##........",
"............$$#%$$+#%##%>-*%&->>>%-->>>>>>'>>-%=;;;==%***&#++##...$$$%%%$$$#++##........",
"............$$%$$%%%+##%-''>>>>>>*&>>>>>>'''>>-&%==%*&&*&**++#...$$$$=%%$$$#++##........",
"............$$%$$%%%+##.%-'>&->>>>>>>>>>>''>>>>>-&&&&&&**%%+++...$$$%=%%$$$#++##........",
"..............++#%%%+##..%-''>>>>&&->>>->>>>>-&&-&&&&&*%%..+++...$$$%=%%$$+#++##........",
"..............++#+#++##...%-''>>>>-**&->>>>>>>>-&&&&&*%....+++#..$$$%.###++#++##........",
"..............++#+#+##.....%&-''>>'>>>>>>>>>>>-&&&&&*%.....+#+#.......+#+++#++##........",
".............+++#+#+##......%%&-'>>&->>>>>>>>-&&&&*%.......+#+#.......+#+@+#++##........",
".............++##+++##........%*->>>>>>>>>>--&&&*%.........+#+#.......+#+@+#++##........",
".............@+##+++##..........%*&->>>>>--&&*%%...........+#+#.......@#+@+#++##........",
".............@+##++###..........>>%*&---&&*%%..............+###.......@#+@+#++##........",
".............@+##++###.......,,>>&.%%**%%**&*..............+##........@#@@+#@+#.........",
".............@+##++###.....,$,',->-.,,****&&*,.............+##........+#@@+#@##.........",
".............@@##++###....,,''',,--'',*&&&--,,,,...........+##........+#@@##@##.........",
".............@@+#++###....%''',''&&',-->>--'',,,,..........+##........#+@@##@##.........",
".............@@+##+###...,'',,'$''&',',--''''',,,,%........##.........#+@+#+@#..........",
".............+@+##+###...'$,,'''$,,''$%,''''''''%%,........##.........#+@+#@@#..........",
".............+@+##+###..!',,$'',%,,'$,%,'''''''$,,~&.......#..........#++#+@+#..........",
".............+@+######..!!!~~$,,,%''',,'',,'''$'~~~&&.....##..........+++#+@+#..........",
".............+@+######.!!~&~~&%,,%$$','',,,''$'~!~&~&.....#...........++##+@##..........",
"..............@++#####!!!!~&&&%,~,'',$$%,,,'$'~!!&~!&.....#...........++#+#@#...........",
"..............+++#####!!!!!~~&&%~~%$%,,,%%%$'~!!~&!!&.....#...........++#+#+#...........",
"..............+++####!!!!!~~~~&~!!%$%%~~,,%,~!!~&~!!&.................++#+#+#...........",
"...............++##+#!!!!!~~~~&~!!%%%~~!~~~~~!!~&~!!&.................+##+#+#...........",
"...............++##++!!!!!~~~~&!!$%$%~~!!!!!!!!~&~~!~.................+#+#++............",
"...............+++#+!!~!!!~~~&&!$$%$%%~!!!!!!!!~&~~!!................++#+#+#............",
"...............+++#+!!~!!!~~~&~!$$$$%%~!!~~~!!~~&~~!!................++#+#+#............",
"...............+++#+!!~!!~~~~&~$$$$%$%~!!~~!!&~~~&~!~................+##+#+#............",
"................++#+!!~!!~~~~&~$$$$%$%%~~~~!!&~~~&~!&................+##+#+.............",
"................++#+!~~!!~~~&&$'$$%,'%%~~~~!!&~~~&~!&................+###+#.............",
"................++#+~~~!!~~~&&~$'',%$,,~~~~!~&~~~&~~&................+#+#+#.............",
"................++#+#~~!~~~~&~~~$$%&~%%!~~!!&~~~~&~~.................+#+#+..............",
".........+......++#+#~~~~~~&&~!!~~~&~~~!~~!!&~~~~~&~.................##+#+.......#......",
".........+......++#+#&~~~~&&.'!!~~$&!!!!~~!~&~~~~~&~.................#+#++.......+......",
"........+.......++#+#.~~~&&..$'',~~&!!!!~!!&~~~~~~&~.................#+#++........+.....",
"........+.......++###.&&&....'$$%''',,~!!!!&,,,''',~..................+#++........+.....",
"........+#......++##..........',,$%$%$''''',%%%$$$%~..................+#++........+#....",
"........++......+###.............''',,$$$$$%,,,''',~..................+#++........+#....",
"........++#....++##.............;;=;=;''',',=====&~~...................#++#......++.....",
".........++###++###...........;===================&~...................#+++#....++#.....",
"..........++++####.........);;)=;====;;==;==;======~....................#+++###++#......",
"............####..........;=)=;====;););==;;=======&.....................#++++###.......",
"........................);)=;=====;;=;==;=;==;;=====......................#####.........",
".......................;=;---&==------;====;;==;====....................................",
".......................=;->---&->>>>>>--==;==;=;=====...................................",
"......................;;->>>-&-->>>>>>>--=============..................................",
"......................=->>>>-&->>>>>>>>--&=;==;=;;=====.................................",
"....................===->>>>-&->>>>>>>--&&=====;=;;=====................................",
".......................->>>>-&->>>>>>--&&&&===..........................................",
".......................->>>>-&->>>>>>-&&................................................",
".......................,'>>>>,,>>>>>>',,,...............................................",
".......................,''''',,''''''',,,...............................................",
".......................,'''',,,,''''''',,,..............................................",
".......................,''''',,,,,''''',,,..............................................",
".......................,''''',,,,'''''',,,..............................................",
".......................,'''''',,,''''''',,,.............................................",
".......................,,''''',,,,'''''',,,.............................................",
"........................,''''',,,,''''''',,.............................................",
"........................,''''',,,,,'''''',,.............................................",
"........................,,'''',,,.,'''''',,,............................................",
"........................,,'''',,,..,''''',,,............................................",
".........................,'''',,,...,''''',,,...........................................",
".........................,'''',,,...,,''''',,,==........................................",
"..........................,''',,,=...,''''',,,===.......................................",
"..........................,,'',,,=....,'''',,,%%==......................................",
".........................=,''',,,==...,,'',,,,%%%=......................................",
".........................=%%%%%%,%=...%%%%%%,%%%%=......................................",
"........................%=%%%%%%%%=...%%%%%%,%%%%=......................................",
"........................%=%%%%%%=%=...%%%%%%=%%%==......................................",
"........................%=%%%%%%=%=...=%%%%%==%%==......................................",
"........................%========%=...========%%=.......................................",
"........................%=%**%%%=%=...=%**%%%=%%=.......................................",
"........................%=%*%%%%=%=...=%*%%%%=%%=.......................................",
"........................%%=======%=...========%%=.......................................",
"........................%%=%%%%=%%=....=%%%%=%%%=.......................................",
".........................%=%%%%=%%=....=%%%%=%%%=.......................................",
".........................%%====%%==....%====%%%==.......................................",
".........................%%**%%%%=.....%**%%%%%==.......................................",
".........................%%%%%%%%=.....%%%%%%%==........................................",
"..........................========......=======.........................................",
"........................................................................................"};
